<svg width="489" height="493" viewBox="0 0 489 493" fill="none" xmlns="http://www.w3.org/2000/svg">
<mask id="mask0" mask-type="alpha" maskUnits="userSpaceOnUse" x="0" y="0" width="489" height="493">
<path d="M489 0L489 493L-2.15497e-05 493L0 -2.13749e-05L489 0Z" fill="#C4C4C4"/>
</mask>
<g mask="url(#mask0)">
<path d="M361.419 47C389.367 47 412.024 70.1203 412.024 98.6407L412.024 739.431C412.024 767.951 389.367 791.071 361.418 791.071C333.47 791.071 310.813 767.951 310.813 739.431L310.813 98.6406C310.813 70.1202 333.47 47 361.419 47Z" fill="#FFFF99"/>
<path fill-rule="evenodd" clip-rule="evenodd" d="M409.878 739.431L409.878 98.6407C409.878 71.3298 388.182 49.1899 361.419 49.1899C334.655 49.1899 312.959 71.3297 312.959 98.6406L312.959 739.431C312.959 766.741 334.655 788.881 361.418 788.881C388.182 788.881 409.878 766.742 409.878 739.431ZM412.024 98.6407C412.024 70.1203 389.367 47 361.419 47C333.47 47 310.813 70.1202 310.813 98.6406L310.813 739.431C310.813 767.951 333.47 791.071 361.418 791.071C389.367 791.071 412.024 767.951 412.024 739.431L412.024 98.6407Z" fill="#3C3B3B"/>
<path d="M259.661 219.136C287.91 219.136 310.811 242.505 310.811 271.332L310.81 738.875C310.81 767.702 287.91 791.071 259.66 791.071C231.411 791.071 208.51 767.702 208.51 738.875L208.511 271.332C208.511 242.505 231.411 219.136 259.661 219.136Z" fill="#FFFF99"/>
<path fill-rule="evenodd" clip-rule="evenodd" d="M308.664 738.875L308.665 271.332C308.665 243.714 286.725 221.326 259.661 221.326C232.596 221.326 210.657 243.714 210.657 271.332L210.656 738.875C210.656 766.493 232.596 788.881 259.66 788.881C286.725 788.881 308.664 766.493 308.664 738.875ZM310.811 271.332C310.811 242.505 287.91 219.136 259.661 219.136C231.411 219.136 208.511 242.505 208.511 271.332L208.51 738.875C208.51 767.702 231.411 791.071 259.66 791.071C287.91 791.071 310.81 767.702 310.81 738.875L310.811 271.332Z" fill="#3C3B3B"/>
<path d="M157.362 246.9C185.611 246.9 208.512 270.269 208.512 299.096L208.512 738.875C208.512 767.702 185.611 791.071 157.362 791.071C129.112 791.071 106.212 767.702 106.212 738.875L106.212 299.096C106.212 270.269 129.112 246.9 157.362 246.9Z" fill="#FFFF99"/>
<path fill-rule="evenodd" clip-rule="evenodd" d="M206.366 738.875L206.366 299.096C206.366 271.478 184.426 249.09 157.362 249.09C130.298 249.09 108.358 271.478 108.358 299.096L108.358 738.875C108.358 766.493 130.297 788.882 157.362 788.882C184.426 788.882 206.366 766.493 206.366 738.875ZM208.512 299.096C208.512 270.269 185.611 246.9 157.362 246.9C129.112 246.9 106.212 270.269 106.212 299.096L106.212 738.875C106.212 767.702 129.112 791.071 157.362 791.071C185.611 791.071 208.512 767.702 208.512 738.875L208.512 299.096Z" fill="#3C3B3B"/>
<path d="M55.6061 273.554C83.5549 273.554 106.212 296.674 106.212 325.194L106.212 739.431C106.212 767.952 83.5548 791.072 55.606 791.072C27.6571 791.072 5.00015 767.952 5.00016 739.431L5.00026 325.194C5.00027 296.674 27.6573 273.554 55.6061 273.554Z" fill="#FFFF99"/>
<path fill-rule="evenodd" clip-rule="evenodd" d="M104.066 739.431L104.066 325.194C104.066 297.883 82.3697 275.744 55.6061 275.744C28.8425 275.744 7.14626 297.883 7.14626 325.194L7.14616 739.431C7.14615 766.742 28.8424 788.882 55.606 788.882C82.3696 788.882 104.066 766.742 104.066 739.431ZM106.212 325.194C106.212 296.674 83.5549 273.554 55.6061 273.554C27.6573 273.554 5.00027 296.674 5.00026 325.194L5.00016 739.431C5.00015 767.952 27.6571 791.072 55.606 791.072C83.5548 791.072 106.212 767.952 106.212 739.431L106.212 325.194Z" fill="#3C3B3B"/>
<path d="M304.815 406C362.907 406 410 441.529 410 485.356L410 524.644C410 568.471 362.907 604 304.815 604L116.185 604C58.0929 604 11 568.471 11 524.644L11 485.356C11 441.529 58.0929 406 116.185 406L304.815 406Z" fill="#FFFF99"/>
</g>
</svg>
