<svg width="493" height="489" viewBox="0 0 493 489" fill="none" xmlns="http://www.w3.org/2000/svg">
<mask id="mask0" mask-type="alpha" maskUnits="userSpaceOnUse" x="0" y="0" width="493" height="489">
<path d="M0 0H493V489H0V0Z" fill="#C4C4C4"/>
</mask>
<g mask="url(#mask0)">
<path d="M168.863 173.462C168.863 154.948 184.179 139.939 203.071 139.939L627.544 139.939C646.437 139.939 661.752 154.948 661.752 173.462C661.752 191.976 646.437 206.984 627.544 206.984L203.071 206.984C184.179 206.984 168.863 191.975 168.863 173.462Z" fill="#6F62FF"/>
<path fill-rule="evenodd" clip-rule="evenodd" d="M627.544 141.361L203.071 141.361C184.98 141.361 170.314 155.733 170.314 173.462C170.314 191.19 184.98 205.562 203.071 205.562L627.544 205.563C645.636 205.563 660.302 191.19 660.302 173.462C660.302 155.733 645.636 141.361 627.544 141.361ZM203.071 139.939C184.179 139.939 168.863 154.948 168.863 173.462C168.863 191.975 184.179 206.984 203.071 206.984L627.544 206.984C646.437 206.984 661.752 191.976 661.752 173.462C661.752 154.948 646.437 139.939 627.544 139.939L203.071 139.939Z" fill="#3C3B3B"/>
<path d="M282.89 240.867C282.89 222.154 298.37 206.984 317.465 206.984L627.176 206.984C646.272 206.984 661.752 222.154 661.752 240.867C661.752 259.58 646.272 274.75 627.176 274.75L317.465 274.75C298.37 274.75 282.89 259.58 282.89 240.867Z" fill="#6F62FF"/>
<path fill-rule="evenodd" clip-rule="evenodd" d="M627.176 208.406L317.465 208.406C299.171 208.406 284.34 222.939 284.34 240.867C284.34 258.795 299.171 273.328 317.465 273.328L627.176 273.328C645.471 273.328 660.301 258.795 660.301 240.867C660.301 222.939 645.471 208.406 627.176 208.406ZM317.465 206.984C298.37 206.984 282.89 222.154 282.89 240.867C282.89 259.58 298.37 274.75 317.465 274.75L627.176 274.75C646.272 274.75 661.752 259.58 661.752 240.867C661.752 222.154 646.272 206.984 627.176 206.984L317.465 206.984Z" fill="#3C3B3B"/>
<path d="M301.281 308.633C301.281 289.92 316.761 274.75 335.857 274.75L627.177 274.75C646.272 274.75 661.752 289.92 661.752 308.633C661.752 327.346 646.272 342.516 627.177 342.516L335.857 342.515C316.761 342.515 301.281 327.346 301.281 308.633Z" fill="#6F62FF"/>
<path fill-rule="evenodd" clip-rule="evenodd" d="M627.177 276.171L335.857 276.171C317.563 276.171 302.732 290.705 302.732 308.633C302.732 326.56 317.563 341.094 335.857 341.094L627.177 341.094C645.471 341.094 660.302 326.561 660.302 308.633C660.302 290.705 645.471 276.171 627.177 276.171ZM335.857 274.75C316.761 274.75 301.281 289.92 301.281 308.633C301.281 327.346 316.761 342.515 335.857 342.515L627.177 342.516C646.272 342.516 661.752 327.346 661.752 308.633C661.752 289.92 646.272 274.75 627.177 274.75L335.857 274.75Z" fill="#3C3B3B"/>
<path d="M318.937 376.038C318.937 357.524 334.253 342.516 353.145 342.516L627.545 342.516C646.437 342.516 661.753 357.524 661.753 376.038C661.753 394.552 646.437 409.56 627.545 409.56L353.145 409.56C334.253 409.56 318.937 394.552 318.937 376.038Z" fill="#6F62FF"/>
<path fill-rule="evenodd" clip-rule="evenodd" d="M627.545 343.937L353.145 343.937C335.054 343.937 320.388 358.309 320.388 376.038C320.388 393.767 335.054 408.139 353.145 408.139L627.545 408.139C645.636 408.139 660.302 393.767 660.302 376.038C660.302 358.309 645.636 343.937 627.545 343.937ZM353.145 342.516C334.253 342.516 318.937 357.524 318.937 376.038C318.937 394.552 334.253 409.56 353.145 409.56L627.545 409.56C646.437 409.56 661.753 394.552 661.753 376.038C661.753 357.524 646.437 342.516 627.545 342.516L353.145 342.516Z" fill="#3C3B3B"/>
<path d="M464.106 211.017C464.106 171.762 496.58 139.939 536.638 139.939H572.546C612.604 139.939 645.078 171.762 645.078 211.017V338.483C645.078 377.738 612.604 409.561 572.546 409.561H536.638C496.58 409.561 464.106 377.738 464.106 338.483V211.017Z" fill="#6F62FF"/>
<path d="M171.016 249.345C159.633 247.014 148.897 242.362 139.514 235.696C130.132 229.031 122.317 220.503 116.584 210.676C110.851 200.849 107.331 189.945 106.256 178.683C105.181 167.422 106.575 156.058 110.347 145.342C114.118 134.626 120.181 124.801 128.136 116.514C136.091 108.228 145.757 101.668 156.497 97.2677C167.237 92.8674 178.807 90.7264 190.444 90.986C202.081 91.2455 213.52 93.8996 224.008 98.7734L219.316 108.258C210.205 104.024 200.267 101.719 190.158 101.493C180.049 101.268 169.999 103.128 160.669 106.95C151.339 110.773 142.942 116.471 136.031 123.67C129.121 130.869 123.854 139.404 120.578 148.713C117.301 158.022 116.09 167.893 117.024 177.676C117.958 187.459 121.016 196.932 125.996 205.469C130.976 214.006 137.765 221.414 145.916 227.204C154.066 232.994 163.393 237.035 173.281 239.061L171.016 249.345Z" fill="#3A3EAB"/>
<path d="M168.216 229.055C152.323 223.782 139.194 212.609 131.717 197.996C124.24 183.382 123.027 166.524 128.346 151.131C133.664 135.738 145.079 123.07 160.077 115.914C175.076 108.758 192.431 107.7 208.324 112.974L204.802 123.166C191.7 118.819 177.393 119.691 165.029 125.59C152.664 131.489 143.254 141.933 138.869 154.623C134.485 167.313 135.484 181.21 141.648 193.257C147.812 205.305 158.636 214.515 171.738 218.862L168.216 229.055Z" fill="#3A3EAB"/>
</g>
</svg>
