<svg width="600" height="600" viewBox="0 0 600 600" fill="none" xmlns="http://www.w3.org/2000/svg">
<rect width="600" height="600" transform="translate(0 600) rotate(-90)" fill="#6F62FF"/>
<path d="M348.874 512.405C333.162 516.004 316.803 517.905 300 517.905C283.198 517.905 266.839 516.004 251.127 512.405L348.874 512.405Z" fill="#F8F7EE"/>
<path d="M390.249 498.405L209.751 498.405C193.855 491.166 178.981 482.074 165.406 471.405L434.595 471.405C421.02 482.074 406.145 491.166 390.249 498.405Z" fill="#F8F7EE"/>
<path d="M450.725 457.405L149.276 457.405C140.585 449.086 132.582 440.055 125.36 430.405L474.641 430.405C467.419 440.055 459.416 449.086 450.725 457.405Z" fill="#F8F7EE"/>
<path d="M484.293 416.405L115.708 416.405C110.253 407.795 105.386 398.776 101.161 389.405L498.84 389.405C494.615 398.776 489.748 407.795 484.293 416.405Z" fill="#F8F7EE"/>
<path d="M504.572 375.405L95.4287 375.405C92.1982 366.655 89.5137 357.642 87.415 348.405L512.586 348.405C510.487 357.642 507.803 366.655 504.572 375.405Z" fill="#F8F7EE"/>
<path d="M515.286 334.405L84.7153 334.405C83.3105 325.571 82.4365 316.559 82.1269 307.405L517.874 307.405C517.564 316.559 516.69 325.571 515.286 334.405Z" fill="#F8F7EE"/>
<path d="M517.905 293.405L82.0957 293.405C82.3638 284.252 83.1958 275.241 84.5586 266.405L515.442 266.405C516.805 275.241 517.637 284.252 517.905 293.405Z" fill="#F8F7EE"/>
<path d="M512.811 252.405L87.1904 252.405C89.2422 243.171 91.8804 234.157 95.0625 225.405L504.938 225.405C508.121 234.157 510.759 243.171 512.811 252.405Z" fill="#F8F7EE"/>
<path d="M499.288 211.405L100.713 211.405C104.879 202.038 109.686 193.02 115.078 184.405L484.923 184.405C490.315 193.02 495.122 202.038 499.288 211.405Z" fill="#F8F7EE"/>
<path d="M475.385 170.405L124.616 170.405C131.745 160.766 139.65 151.735 148.238 143.405L451.763 143.405C460.351 151.735 468.256 160.766 475.385 170.405Z" fill="#F8F7EE"/>
<path d="M435.858 129.405L164.143 129.405C177.443 118.793 192.012 109.705 207.586 102.405L392.415 102.405C407.989 109.705 422.558 118.793 435.858 129.405Z" fill="#F8F7EE"/>
<path d="M353.05 88.4049L246.951 88.4048C263.933 84.159 281.703 81.9048 300 81.9048C318.298 81.9048 336.068 84.159 353.05 88.4049Z" fill="#F8F7EE"/>
</svg>
