<svg width="600" height="600" viewBox="0 0 600 600" fill="none" xmlns="http://www.w3.org/2000/svg">
<rect width="600" height="600" transform="translate(0 600) rotate(-90)" fill="#2D2D2D"/>
<path d="M449.907 449.906C489.664 410.149 512 356.226 512 300C512 243.774 489.664 189.851 449.907 150.093C410.149 110.335 356.226 87.9998 300 87.9998C243.774 87.9998 189.851 110.335 150.093 150.093L239.213 239.213C255.335 223.091 277.2 214.034 300 214.034C322.8 214.034 344.665 223.091 360.787 239.213C376.909 255.334 385.966 277.2 385.966 300C385.966 322.799 376.909 344.665 360.787 360.787L449.907 449.906Z" fill="#FFFF99"/>
<path d="M87.8676 300C87.8676 356.261 110.217 410.218 150 450C189.782 489.783 243.739 512.132 300 512.132C356.261 512.132 410.217 489.783 450 450C489.782 410.218 512.132 356.261 512.132 300L386.019 300C386.019 322.814 376.956 344.693 360.825 360.825C344.693 376.957 322.814 386.02 300 386.02C277.186 386.02 255.307 376.957 239.175 360.825C223.043 344.693 213.98 322.814 213.98 300L87.8676 300Z" fill="#F8F7EE"/>
</svg>
