<svg width="600" height="600" viewBox="0 0 600 600" fill="none" xmlns="http://www.w3.org/2000/svg">
<g clip-path="url(#clip0)">
<rect width="600" height="600" fill="#FF0088"/>
<path d="M349.791 0.502075L0.502075 349.791C0.659428 304.174 9.72022 259.022 27.1802 216.869C44.7945 174.345 70.6121 135.706 103.159 103.159C135.706 70.6121 174.345 44.7944 216.869 27.1802C259.022 9.72018 304.174 0.65942 349.791 0.502075Z" fill="#FFFF99" stroke="#6F62FF"/>
<path d="M0.208346 599.499L599.499 0.208346C599.341 78.6564 583.813 156.318 553.79 228.801C523.612 301.657 479.379 367.856 423.618 423.618C367.856 479.379 301.657 523.612 228.801 553.79C156.318 583.813 78.6564 599.341 0.208346 599.499Z" fill="#FFFF99" stroke="#6F62FF"/>
</g>
<defs>
<clipPath id="clip0">
<rect width="600" height="600" fill="white"/>
</clipPath>
</defs>
</svg>
