<svg width="600" height="600" viewBox="0 0 600 600" fill="none" xmlns="http://www.w3.org/2000/svg">
<rect width="600" height="600" fill="#6F62FF"/>
<path d="M300 556C350.632 556 400.127 540.986 442.226 512.856C484.325 484.727 517.137 444.745 536.513 397.967C555.889 351.189 560.959 299.716 551.081 250.057C541.203 200.398 516.822 154.783 481.019 118.981C445.217 83.1784 399.602 58.7968 349.943 48.919C300.284 39.0411 248.811 44.1108 202.033 63.4868C155.255 82.8629 115.273 115.675 87.1438 157.774C59.0142 199.873 44 249.368 44 300L300 300L300 556Z" fill="#E8FDF5"/>
<path d="M408.748 190.252C431.018 212.522 445.95 241.066 451.544 272.06C457.137 303.055 453.125 335.018 440.044 363.668C426.964 392.318 405.44 416.286 378.356 432.36C351.273 448.435 319.924 455.849 288.509 453.609C257.094 451.368 227.114 439.58 202.586 419.824C178.058 400.068 160.153 373.288 151.271 343.072C142.389 312.856 142.954 280.646 152.889 250.76C162.825 220.873 181.657 194.737 206.862 175.853L299.5 299.5L408.748 190.252Z" fill="#FF0088"/>
</svg>
