<svg width="600" height="600" viewBox="0 0 600 600" fill="none" xmlns="http://www.w3.org/2000/svg">
<rect width="600" height="600" transform="translate(0 600) rotate(-90)" fill="#2D2D2D"/>
<path d="M348.873 512.405C333.162 516.004 316.803 517.905 300 517.905C283.197 517.905 266.838 516.004 251.127 512.405L348.873 512.405Z" fill="#F8F7EE"/>
<path d="M390.249 498.405L209.751 498.405C193.855 491.166 178.981 482.074 165.405 471.405L434.595 471.405C421.019 482.074 406.145 491.166 390.249 498.405Z" fill="#F8F7EE"/>
<path d="M450.724 457.405L149.276 457.405C140.585 449.086 132.582 440.055 125.359 430.405L474.641 430.405C467.418 440.055 459.415 449.086 450.724 457.405Z" fill="#F8F7EE"/>
<path d="M484.293 416.405L115.707 416.405C110.252 407.795 105.385 398.776 101.161 389.405L498.839 389.405C494.615 398.776 489.748 407.795 484.293 416.405Z" fill="#F8F7EE"/>
<path d="M504.572 375.405L95.4282 375.405C92.1977 366.655 89.5132 357.642 87.4145 348.405L512.585 348.405C510.487 357.642 507.802 366.655 504.572 375.405Z" fill="#F8F7EE"/>
<path d="M515.285 334.405L84.7148 334.405C83.31 325.571 82.436 316.559 82.1265 307.405L517.874 307.405C517.564 316.559 516.69 325.571 515.285 334.405Z" fill="#F8F7EE"/>
<path d="M517.905 293.405L82.0952 293.405C82.3633 284.252 83.1953 275.241 84.5581 266.405L515.442 266.405C516.805 275.241 517.637 284.252 517.905 293.405Z" fill="#F8F7EE"/>
<path d="M512.81 252.405L87.1899 252.405C89.2417 243.171 91.8799 234.157 95.062 225.405L504.938 225.405C508.12 234.157 510.758 243.171 512.81 252.405Z" fill="#F8F7EE"/>
<path d="M499.288 211.405L100.712 211.405C104.878 202.038 109.685 193.02 115.077 184.405L484.923 184.405C490.315 193.02 495.122 202.038 499.288 211.405Z" fill="#F8F7EE"/>
<path d="M475.385 170.405L124.615 170.405C131.745 160.766 139.649 151.735 148.238 143.405L451.762 143.405C460.351 151.735 468.255 160.766 475.385 170.405Z" fill="#F8F7EE"/>
<path d="M435.858 129.405L164.142 129.405C177.442 118.793 192.012 109.705 207.586 102.405L392.414 102.405C407.988 109.705 422.558 118.793 435.858 129.405Z" fill="#F8F7EE"/>
<path d="M353.05 88.4049L246.95 88.4048C263.932 84.159 281.703 81.9048 300 81.9048C318.297 81.9048 336.068 84.159 353.05 88.4049Z" fill="#F8F7EE"/>
</svg>
