<svg width="600" height="600" viewBox="0 0 600 600" fill="none" xmlns="http://www.w3.org/2000/svg">
<g clip-path="url(#clip0)">
<rect width="600" height="600" transform="translate(0 600) rotate(-90)" fill="#2D2D2D"/>
<path d="M600 600C600 520.435 568.393 444.129 512.132 387.868C455.871 331.607 379.565 300 300 300C220.435 300 144.129 331.607 87.868 387.868C31.6071 444.129 6.95579e-06 520.435 0 600L178.35 600C178.35 567.736 191.167 536.794 213.981 513.981C236.794 491.167 267.736 478.35 300 478.35C332.264 478.35 363.206 491.167 386.019 513.981C408.833 536.794 421.65 567.736 421.65 600L600 600Z" fill="#FF0088"/>
<path d="M600 3.61893e-06C600 79.5649 568.393 155.871 512.132 212.132C455.871 268.393 379.565 300 300 300C220.435 300 144.129 268.393 87.868 212.132C31.6071 155.871 -4.71236e-05 79.5651 -6.10351e-05 0.00014165L178.35 8.71554e-05C178.35 32.2636 191.167 63.2057 213.981 86.0195C236.794 108.833 267.736 121.65 300 121.65C332.264 121.65 363.206 108.833 386.019 86.0194C408.833 63.2057 421.65 32.2636 421.65 3.11837e-05L600 3.61893e-06Z" fill="#FF0088"/>
</g>
<defs>
<clipPath id="clip0">
<rect width="600" height="600" fill="white" transform="translate(0 600) rotate(-90)"/>
</clipPath>
</defs>
</svg>
