<svg width="600" height="600" viewBox="0 0 600 600" fill="none" xmlns="http://www.w3.org/2000/svg">
<g clip-path="url(#clip0)">
<rect width="600" height="600" transform="translate(0 600) rotate(-90)" fill="#2D2D2D"/>
<path d="M0 450C8.07232e-07 489.782 15.8035 527.936 43.934 556.066C72.0644 584.196 110.218 600 150 600C189.782 600 227.936 584.196 256.066 556.066C284.196 527.936 300 489.782 300 450L210.825 450C210.825 466.132 204.417 481.603 193.01 493.01C181.603 504.417 166.132 510.825 150 510.825C133.868 510.825 118.397 504.417 106.99 493.01C95.5834 481.603 89.1751 466.132 89.1751 450L0 450Z" fill="#FFFF99"/>
<path d="M600 450C600 410.218 584.196 372.064 556.066 343.934C527.936 315.804 489.782 300 450 300C410.218 300 372.064 315.803 343.934 343.934C315.804 372.064 300 410.217 300 450L389.175 450C389.175 433.868 395.583 418.397 406.99 406.99C418.397 395.583 433.868 389.175 450 389.175C466.132 389.175 481.603 395.583 493.01 406.99C504.417 418.397 510.825 433.868 510.825 450L600 450Z" fill="#FFFF99"/>
<path d="M0 150C-2.67066e-06 110.218 15.8035 72.0644 43.934 43.934C72.0644 15.8035 110.218 -9.63552e-06 150 -1.31134e-05C189.782 -1.65913e-05 227.936 15.8035 256.066 43.9339C284.196 72.0644 300 110.217 300 150L210.825 150C210.825 133.868 204.417 118.397 193.01 106.99C181.603 95.5834 166.132 89.1751 150 89.1751C133.868 89.1751 118.397 95.5834 106.99 106.99C95.5834 118.397 89.1751 133.868 89.1751 150L0 150Z" fill="#FFFF99"/>
<path d="M600 150C600 189.782 584.196 227.936 556.066 256.066C527.936 284.196 489.783 300 450 300C410.218 300 372.064 284.197 343.934 256.066C315.804 227.936 300 189.783 300 150L389.175 150C389.175 166.132 395.583 181.603 406.99 193.01C418.397 204.417 433.868 210.825 450 210.825C466.132 210.825 481.603 204.417 493.01 193.01C504.417 181.603 510.825 166.132 510.825 150L600 150Z" fill="#FFFF99"/>
</g>
<defs>
<clipPath id="clip0">
<rect width="600" height="600" fill="white" transform="translate(0 600) rotate(-90)"/>
</clipPath>
</defs>
</svg>
