<svg width="600" height="600" viewBox="0 0 600 600" fill="none" xmlns="http://www.w3.org/2000/svg">
<g clip-path="url(#clip0)">
<rect width="600" height="600" fill="#2D2D2D"/>
<path d="M141 -68C141 -68 222 37.4954 222 116C222 154.565 202.453 199.644 182.563 235.531C160.611 275.137 160.611 324.863 182.563 364.469C202.453 400.356 222 445.435 222 484C222 562.505 141 668 141 668" stroke="#6F62FF" stroke-width="150"/>
<path d="M378 -68C378 -68 459 37.4954 459 116C459 154.565 439.453 199.644 419.563 235.531C397.611 275.137 397.611 324.863 419.563 364.469C439.453 400.356 459 445.435 459 484C459 562.505 378 668 378 668" stroke="#6F62FF" stroke-width="150"/>
</g>
<defs>
<clipPath id="clip0">
<rect width="600" height="600" fill="white"/>
</clipPath>
</defs>
</svg>
