<svg width="600" height="600" viewBox="0 0 600 600" fill="none" xmlns="http://www.w3.org/2000/svg">
<g clip-path="url(#clip0)">
<rect width="600" height="600" fill="#CDF2F4"/>
<path d="M1814.88 -515.54C1976.8 -235.078 1879.85 125.065 1598.81 287.32L1343.93 434.479C1336.22 441.358 1329.76 449.514 1324.83 458.587C1321.55 464.895 1318.98 471.545 1317.15 478.415C1314.05 489.861 1313.24 501.803 1314.77 513.555C1316.3 525.306 1320.15 536.634 1326.09 546.886L1394.72 665.759C1403.91 681.549 1408.07 699.765 1406.66 717.992C1405.25 736.22 1398.32 753.598 1386.8 767.822C1379.87 776.418 1371.4 783.642 1361.81 789.122L1325.25 810.231C1314.98 816.17 1303.64 820.03 1291.88 821.59C1280.12 823.151 1268.17 822.381 1256.71 819.325C1245.26 816.269 1234.52 810.987 1225.12 803.781C1215.72 796.575 1207.84 787.586 1201.92 777.328L1122.09 639.059C1084.31 573.735 1073.53 496.226 1092.03 422.985C1110.54 349.744 1156.88 286.535 1221.21 246.776C1223.8 245.285 1226.38 243.793 1228.92 242.323L1248.09 231.257L1252.14 228.919L1486.78 93.4501C1549.19 57.4369 1599.54 3.76317 1631.47 -60.7819C1663.39 -125.327 1675.45 -197.844 1666.13 -269.16C1656.8 -340.476 1626.51 -407.387 1579.07 -461.43C1531.64 -515.473 1469.2 -554.22 1399.65 -572.77C1330.11 -591.319 1256.58 -588.838 1188.36 -565.641C1120.15 -542.443 1060.31 -499.571 1016.43 -442.446C972.547 -385.322 946.586 -316.513 941.829 -244.722C937.072 -172.931 953.734 -101.383 989.707 -39.1286C1066.34 93.4008 1087.84 250.755 1049.61 399.161L1050.71 399.453C1023.02 507.892 964.735 606.159 882.791 682.552C881.939 683.448 881.037 684.294 880.089 685.087C877.591 687.351 875.098 689.713 872.517 691.922C871.615 692.853 870.607 693.692 869.677 694.485C867.954 696.044 866.309 697.558 864.404 699.069C861.845 701.316 859.28 703.464 856.715 705.612C853.004 708.626 849.316 711.679 845.584 714.655C814.456 739.372 780.913 760.887 745.466 778.872C669.182 817.66 585.292 839.146 499.796 841.795L498.841 841.833C490.5 842.082 482.153 842.232 473.811 842.122C463.52 842.111 453.405 841.692 443.112 840.964C437.833 840.728 432.841 840.275 427.638 839.636C417.339 838.809 407.017 837.585 396.776 836.057C389.054 834.974 381.321 833.692 373.659 832.267L373.316 832.208C327.27 823.861 282.38 810.115 239.577 791.254C230.044 883.677 198.688 972.561 148.088 1050.6C97.4874 1128.63 29.088 1193.59 -51.485 1240.12L-275.672 1369.56C-314.239 1391.82 -339.81 1435.88 -334.492 1472.53L-327.417 1493.69C-326.5 1495.68 -325.48 1497.63 -324.36 1499.52L-255.729 1618.39C-246.55 1634.18 -242.393 1652.4 -243.808 1670.62C-245.223 1688.85 -252.142 1706.22 -263.651 1720.45C-270.579 1729.05 -279.053 1736.27 -288.635 1741.75L-325.119 1762.82C-335.393 1768.75 -346.733 1772.6 -358.49 1774.16C-370.248 1775.71 -382.192 1774.94 -393.642 1771.88C-405.092 1768.83 -415.822 1763.54 -425.219 1756.34C-434.617 1749.13 -442.498 1740.15 -448.412 1729.89L-528.13 1591.82C-565.911 1526.49 -576.693 1448.98 -558.187 1375.74C-539.681 1302.5 -493.344 1239.29 -429.011 1199.53L-163.442 1046.21C-101.036 1010.19 -50.6907 956.508 -18.7742 891.962C13.1423 827.415 25.1964 754.899 15.8636 683.585C6.53085 612.272 -23.7696 545.365 -71.2053 491.327C-118.641 437.289 -181.081 398.548 -250.628 380.003C-320.174 361.458 -393.703 363.943 -461.915 387.143C-530.126 410.343 -589.956 453.217 -633.836 510.341C-677.717 567.464 -703.676 636.273 -708.432 708.062C-713.188 779.851 -696.526 851.397 -660.554 913.65L-564.75 1079.59C-549.906 1105.3 -545.906 1135.86 -553.629 1164.56C-561.352 1193.26 -580.166 1217.74 -605.932 1232.61C-631.697 1247.49 -662.304 1251.54 -691.019 1243.88C-719.734 1236.22 -744.204 1217.47 -759.048 1191.77L-854.852 1025.83C-1016.78 745.366 -919.709 385.156 -638.79 222.967C-558.206 176.445 -467.752 149.675 -374.869 144.86C-281.986 140.045 -189.327 157.323 -104.513 195.272C-90.0038 56.2645 -26.4957 -73.1541 74.6633 -169.858C77.7744 -172.831 81.0588 -175.619 84.4994 -178.205C91.2351 -184.351 98.1387 -190.355 105.21 -196.217C212.894 -285.883 348.939 -334.399 488.991 -333.079C505.955 -332.863 522.641 -328.811 537.798 -321.226C552.956 -313.641 566.189 -302.721 576.504 -289.286C586.819 -275.85 593.948 -260.249 597.356 -243.654C600.764 -227.059 600.362 -209.901 596.18 -193.469C590.007 -169.092 575.701 -147.529 555.625 -132.342C535.551 -117.008 510.903 -108.869 485.659 -109.239C404.105 -109.935 324.615 -83.3239 259.876 -33.6515C195.136 16.0208 148.876 85.8917 128.48 164.811C126.137 173.758 124.192 182.68 122.652 192.035C109.764 265.357 119.703 340.821 151.127 408.237C182.55 475.654 233.944 531.776 298.369 569.026C362.795 606.276 437.149 622.86 511.392 616.538C585.635 610.217 656.191 581.294 713.533 533.676C714.821 532.522 716.214 531.461 717.48 530.269C718.745 529.076 720.122 528.076 721.349 526.906C723.644 524.914 725.9 522.944 728.129 520.837L734.776 514.536C792.358 457.912 829.559 383.85 840.554 303.941C851.549 224.033 835.719 142.788 795.541 72.9217C633.616 -207.54 730.761 -567.794 1011.64 -729.961C1292.52 -892.127 1652.95 -796.002 1814.88 -515.54Z" fill="#2D2D2D"/>
</g>
<defs>
<clipPath id="clip0">
<rect width="600" height="600" fill="white"/>
</clipPath>
</defs>
</svg>
