<svg width="600" height="600" viewBox="0 0 600 600" fill="none" xmlns="http://www.w3.org/2000/svg">
<g clip-path="url(#clip0)">
<rect width="600" height="600" fill="#2D2D2D"/>
<rect x="142.509" y="147.206" width="714.312" height="98.2895" rx="49.1447" fill="#FFFF99" stroke="#2D2D2D"/>
<rect x="307.992" y="246.496" width="548.83" height="99.3572" rx="49.5" fill="#FFFF99" stroke="#2D2D2D"/>
<rect x="334.682" y="346.853" width="522.139" height="99.3572" rx="49.5" fill="#FFFF99" stroke="#2D2D2D"/>
<rect x="360.305" y="447.21" width="496.516" height="98.2895" rx="49.1448" fill="#FFFF99" stroke="#2D2D2D"/>
<rect x="570.484" y="146.706" width="262.637" height="399.294" rx="50" fill="#FFFF99"/>
<path d="M145.133 308.73C128.614 305.277 113.033 298.388 99.4163 288.517C85.8 278.646 74.4582 266.017 66.1386 251.464C57.819 236.91 52.7106 220.762 51.1504 204.084C49.5901 187.406 51.6133 170.578 57.0866 154.708C62.56 138.838 71.3591 124.287 82.9038 112.015C94.4485 99.7434 108.477 90.0288 124.063 83.5122C139.65 76.9956 156.44 73.8249 173.329 74.2092C190.217 74.5936 206.818 78.5242 222.039 85.742L215.229 99.7886C202.007 93.5185 187.585 90.104 172.914 89.7701C158.243 89.4362 143.657 92.1906 130.117 97.8516C116.577 103.513 104.391 111.952 94.3618 122.612C84.3329 133.273 76.6891 145.913 71.9344 159.699C67.1797 173.486 65.4221 188.105 66.7775 202.593C68.1329 217.081 72.5706 231.109 79.7979 243.752C87.0251 256.394 96.8778 267.365 108.706 275.94C120.535 284.515 134.071 290.5 148.421 293.499L145.133 308.73Z" fill="#F8F7EE"/>
<path d="M141.069 278.682C118.004 270.872 98.9505 254.327 88.0991 232.685C77.2478 211.043 75.488 186.077 83.2068 163.281C90.9256 140.484 107.491 121.723 129.258 111.126C151.025 100.528 176.212 98.9621 199.277 106.772L194.166 121.867C175.151 115.429 154.388 116.72 136.443 125.456C118.499 134.193 104.843 149.659 98.4793 168.452C92.116 187.245 93.5668 207.826 102.513 225.667C111.458 243.509 127.166 257.149 146.18 263.587L141.069 278.682Z" fill="#F8F7EE"/>
</g>
<defs>
<clipPath id="clip0">
<rect width="600" height="600" fill="white"/>
</clipPath>
</defs>
</svg>
