<svg width="600" height="600" viewBox="0 0 600 600" fill="none" xmlns="http://www.w3.org/2000/svg">
<g clip-path="url(#clip0)">
<rect width="600" height="600" fill="#6F62FF"/>
<path d="M756 300C756 209.812 729.256 121.649 679.15 46.66C629.044 -28.3288 557.827 -86.7755 474.504 -121.289C391.181 -155.803 299.494 -164.833 211.039 -147.238C122.583 -129.643 41.332 -86.2134 -22.4407 -22.4407C-86.2134 41.3321 -129.643 122.583 -147.238 211.039C-164.833 299.494 -155.803 391.181 -121.289 474.504C-86.7755 557.827 -28.3288 629.044 46.66 679.15C121.649 729.256 209.812 756 300 756L300 300L756 300Z" fill="#2D2D2D"/>
<path d="M433.265 376.812C419.694 400.293 400.181 419.788 376.688 433.337C353.194 446.886 326.548 454.013 299.428 454C272.307 453.987 245.668 446.836 222.188 433.265C198.707 419.694 179.212 400.181 165.663 376.687C152.114 353.194 144.987 326.548 145 299.428C145.013 272.307 152.164 245.668 165.735 222.188C179.306 198.707 198.819 179.212 222.312 165.663C245.806 152.114 272.452 144.987 299.572 145L299.5 299.5L433.265 376.812Z" fill="#FFFF99"/>
</g>
<defs>
<clipPath id="clip0">
<rect width="600" height="600" fill="white"/>
</clipPath>
</defs>
</svg>
