<svg width="600" height="600" viewBox="0 0 600 600" fill="none" xmlns="http://www.w3.org/2000/svg">
<rect width="600" height="600" fill="#F8F7EE"/>
<path d="M300 150C300 120.333 291.203 91.3318 274.72 66.6645C258.238 41.9971 234.811 22.7712 207.403 11.4181C179.994 0.064925 149.834 -2.90558 120.736 2.88221C91.6393 8.66999 64.9119 22.9561 43.934 43.934C22.9561 64.9119 8.66999 91.6393 2.88221 120.736C-2.90558 149.834 0.0649254 179.994 11.4181 207.403C22.7712 234.811 41.9971 258.238 66.6645 274.72C91.3318 291.203 120.333 300 150 300V150H300Z" fill="#FF0088"/>
<path d="M300 450C300 479.667 291.203 508.668 274.72 533.336C258.238 558.003 234.811 577.229 207.403 588.582C179.994 599.935 149.834 602.906 120.736 597.118C91.6393 591.33 64.9119 577.044 43.934 556.066C22.9561 535.088 8.66999 508.361 2.88221 479.264C-2.90558 450.166 0.0649254 420.006 11.4181 392.597C22.7712 365.189 41.9971 341.762 66.6645 325.28C91.3318 308.797 120.333 300 150 300V450H300Z" fill="#FF0088"/>
<path d="M600 150C600 179.667 591.203 208.668 574.72 233.336C558.238 258.003 534.811 277.229 507.403 288.582C479.994 299.935 449.834 302.906 420.736 297.118C391.639 291.33 364.912 277.044 343.934 256.066C322.956 235.088 308.67 208.361 302.882 179.264C297.094 150.166 300.065 120.006 311.418 92.5975C322.771 65.1886 341.997 41.7618 366.664 25.2796C391.332 8.79735 420.333 -3.53778e-07 450 0V150H600Z" fill="#FF0088"/>
</svg>
