<svg width="600" height="600" viewBox="0 0 600 600" fill="none" xmlns="http://www.w3.org/2000/svg">
<g clip-path="url(#clip0)">
<rect width="600" height="600" fill="#F8F7EE"/>
<path d="M0 351C4.02966e-06 304.906 9.0789 259.263 26.7183 216.678C44.3577 174.093 70.2121 135.399 102.806 102.805C135.399 70.2121 174.093 44.3577 216.678 26.7182C259.263 9.07885 304.906 -4.02966e-06 351 0L0 351Z" fill="#FF0088"/>
<path d="M600 -1C600 77.9244 584.455 156.076 554.252 228.993C524.049 301.909 479.779 368.163 423.971 423.971C368.163 479.779 301.909 524.049 228.993 554.252C156.076 584.455 77.9244 600 -1 600L600 -1Z" fill="#FF0088"/>
</g>
<defs>
<clipPath id="clip0">
<rect width="600" height="600" fill="white"/>
</clipPath>
</defs>
</svg>
