<svg width="600" height="600" viewBox="0 0 600 600" fill="none" xmlns="http://www.w3.org/2000/svg">
<g clip-path="url(#clip0)">
<rect width="600" height="600" fill="#F8F7EE"/>
<rect x="192.899" y="147.206" width="714.312" height="98.2895" rx="49.1447" fill="#FF0088" stroke="#F8F7EE"/>
<rect x="358.382" y="246.496" width="548.83" height="99.3572" rx="49.5" fill="#FF0088" stroke="#F8F7EE"/>
<rect x="385.073" y="346.853" width="522.139" height="99.3572" rx="49.5" fill="#FF0088" stroke="#F8F7EE"/>
<rect x="410.696" y="447.21" width="496.516" height="98.2895" rx="49.1448" fill="#FF0088" stroke="#F8F7EE"/>
<mask id="path-5-inside-1" fill="white">
<path d="M195.523 308.73C179.004 305.277 163.423 298.388 149.807 288.517C136.19 278.646 124.848 266.017 116.529 251.464C108.209 236.91 103.101 220.762 101.541 204.084C99.9803 187.406 102.004 170.578 107.477 154.708C112.95 138.838 121.749 124.287 133.294 112.015C144.839 99.7434 158.867 90.0288 174.453 83.5122C190.04 76.9956 206.831 73.8249 223.719 74.2092C240.607 74.5936 257.209 78.5242 272.43 85.742L265.62 99.7886C252.397 93.5185 237.975 90.104 223.304 89.7701C208.634 89.4362 194.047 92.1906 180.507 97.8516C166.967 103.513 154.781 111.952 144.752 122.612C134.723 133.273 127.079 145.913 122.325 159.699C117.57 173.486 115.812 188.105 117.168 202.593C118.523 217.081 122.961 231.109 130.188 243.752C137.415 256.394 147.268 267.365 159.097 275.94C170.925 284.515 184.461 290.5 198.811 293.499L195.523 308.73Z"/>
</mask>
<path d="M195.523 308.73C179.004 305.277 163.423 298.388 149.807 288.517C136.19 278.646 124.848 266.017 116.529 251.464C108.209 236.91 103.101 220.762 101.541 204.084C99.9803 187.406 102.004 170.578 107.477 154.708C112.95 138.838 121.749 124.287 133.294 112.015C144.839 99.7434 158.867 90.0288 174.453 83.5122C190.04 76.9956 206.831 73.8249 223.719 74.2092C240.607 74.5936 257.209 78.5242 272.43 85.742L265.62 99.7886C252.397 93.5185 237.975 90.104 223.304 89.7701C208.634 89.4362 194.047 92.1906 180.507 97.8516C166.967 103.513 154.781 111.952 144.752 122.612C134.723 133.273 127.079 145.913 122.325 159.699C117.57 173.486 115.812 188.105 117.168 202.593C118.523 217.081 122.961 231.109 130.188 243.752C137.415 256.394 147.268 267.365 159.097 275.94C170.925 284.515 184.461 290.5 198.811 293.499L195.523 308.73Z" fill="#6F62FF" stroke="#F8F7EE" stroke-width="2" mask="url(#path-5-inside-1)"/>
<mask id="path-6-inside-2" fill="white">
<path d="M191.459 278.682C168.394 270.872 149.34 254.327 138.489 232.685C127.638 211.043 125.878 186.077 133.597 163.281C141.316 140.484 157.881 121.723 179.648 111.126C201.415 100.528 226.602 98.9621 249.667 106.772L244.556 121.867C225.541 115.429 204.778 116.72 186.833 125.456C168.889 134.193 155.233 149.659 148.869 168.452C142.506 187.245 143.957 207.826 152.903 225.667C161.848 243.509 177.556 257.149 196.57 263.587L191.459 278.682Z"/>
</mask>
<path d="M191.459 278.682C168.394 270.872 149.34 254.327 138.489 232.685C127.638 211.043 125.878 186.077 133.597 163.281C141.316 140.484 157.881 121.723 179.648 111.126C201.415 100.528 226.602 98.9621 249.667 106.772L244.556 121.867C225.541 115.429 204.778 116.72 186.833 125.456C168.889 134.193 155.233 149.659 148.869 168.452C142.506 187.245 143.957 207.826 152.903 225.667C161.848 243.509 177.556 257.149 196.57 263.587L191.459 278.682Z" fill="#6F62FF" stroke="#F8F7EE" stroke-width="2" mask="url(#path-6-inside-2)"/>
</g>
<defs>
<clipPath id="clip0">
<rect width="600" height="600" fill="white"/>
</clipPath>
</defs>
</svg>
